<svg xmlns="http://www.w3.org/2000/svg" xmlns:xlink="http://www.w3.org/1999/xlink" width="203" height="49"><defs><path id="a" d="M0 .215h36.523V48.81H0z"/><path id="c" d="M0 .215h36.522v24.29H0z"/></defs><g fill="none" fill-rule="evenodd"><path fill="#0090D7" d="M53.303 32.577h-.072c-.024 0-.072-.024-.12-.072a.18.18 0 01-.047-.095V20.24c0-.072-.048-.12-.12-.143h-4.081a.181.181 0 01-.095-.048l-.024-.023c0-.024 0-.024-.024-.024-.024-.024-.024-.072-.024-.143v-3.24c0-.118.048-.215.167-.238h12.532c.071 0 .119.023.167.072.023.024.023.024.023.048a.182.182 0 01.048.119v3.239a.27.27 0 01-.071.19.182.182 0 01-.12.048h-4.034c-.048 0-.072 0-.096.024l-.048.047V32.41a.309.309 0 01-.119.143c-.024.024-.048.024-.12.024h-3.722zm14.703-15.959c0-.166.072-.238.239-.238h10.622c.167 0 .239.072.239.238v3.073c0 .167-.072.238-.239.238H72.35c-.095 0-.143.048-.143.143v2.453c0 .096.048.143.143.143h5.347c.167 0 .239.072.239.238v3.002c0 .166-.072.238-.24.238H72.35c-.095 0-.143.047-.143.143v2.596c0 .095.048.143.143.143h6.517c.167 0 .239.071.239.238v3.073c0 .166-.072.238-.239.238H68.245c-.167 0-.239-.072-.239-.238v-15.72zm20.36 15.578c-1.217-.452-2.148-1.001-2.793-1.643-.143-.12-.143-.263-.023-.382l2.148-2.525c.12-.119.215-.141.334-.024 1.217 1.073 2.602 1.62 4.13 1.62 1.456 0 2.29-.595 2.29-1.524 0-.738-.524-1.167-2.052-1.358l-.86-.119c-3.603-.5-5.418-2.215-5.418-5.097 0-1.524.549-2.74 1.648-3.668 1.097-.929 2.554-1.381 4.391-1.381 2.292 0 4.226.595 5.8 1.786.12.095.144.214.048.357l-1.79 2.596c-.096.12-.215.143-.335.072-1.216-.81-2.433-1.215-3.651-1.215-1.146 0-1.79.524-1.79 1.358 0 .739.573 1.166 2.076 1.358l.86.119c3.604.5 5.37 2.119 5.37 5.144 0 1.549-.573 2.81-1.742 3.763-1.146.954-2.769 1.43-4.894 1.43-1.264 0-2.53-.214-3.747-.667m20.217.381h-.072c-.024 0-.071-.024-.119-.072a.18.18 0 01-.048-.095V20.24c0-.072-.047-.12-.119-.143h-4.081a.181.181 0 01-.096-.048l-.024-.023c0-.024 0-.024-.025-.024-.022-.024-.022-.072-.022-.143v-3.24c0-.118.047-.215.167-.238h12.531c.071 0 .12.023.167.072.024.024.024.024.024.048a.182.182 0 01.047.119v3.239a.27.27 0 01-.071.19.182.182 0 01-.12.048h-4.034c-.048 0-.072 0-.096.024l-.047.047V32.41a.318.318 0 01-.12.143c-.023.024-.047.024-.119.024h-3.723zm14.703-15.959c0-.166.072-.238.239-.238h3.723c.167 0 .239.072.239.238v15.72c0 .167-.072.239-.24.239h-3.722c-.167 0-.239-.072-.239-.238v-15.72zm11.6 0c0-.166.072-.238.239-.238h3.508c.215 0 .334.072.406.238l4.894 9.17h.095v-9.17c0-.166.072-.238.239-.238h3.341c.167 0 .239.072.239.238v15.72c0 .167-.072.239-.239.239H144.1c-.215 0-.334-.072-.406-.238l-4.846-9.147h-.143v9.147c0 .166-.072.238-.239.238h-3.341c-.167 0-.239-.072-.239-.238v-15.72zm20.36 0c0-.166.072-.238.239-.238h3.723c.167 0 .239.072.239.238v15.72c0 .167-.072.239-.239.239h-3.723c-.167 0-.239-.072-.239-.238v-15.72zm11.554 9.695v-9.694c0-.167.07-.238.238-.238h3.723c.167 0 .239.071.239.238v9.956c0 1.595.907 2.549 2.267 2.549 1.408 0 2.244-.929 2.244-2.55V16.62c0-.167.072-.238.24-.238h3.722c.167 0 .239.071.239.238v9.694c0 4.215-2.507 6.55-6.445 6.55-4.01 0-6.468-2.335-6.468-6.55m20.264-9.696c0-.166.071-.238.238-.238h3.533c.215 0 .334.072.406.238l3.748 8.456h.095l3.652-8.456c.072-.166.19-.238.406-.238h3.484c.167 0 .239.072.239.238v15.72c0 .167-.072.239-.239.239h-3.317c-.167 0-.239-.072-.239-.238v-8.337h-.12l-2.601 6.05c-.096.215-.239.31-.453.31h-1.863c-.167 0-.334-.095-.453-.31l-2.602-6.05h-.12v8.337c0 .166-.07.238-.238.238h-3.318c-.167 0-.238-.072-.238-.238v-15.72z"/><g transform="translate(0 -.025)"><mask id="b" fill="#fff"><use xlink:href="#a"/></mask><path fill="#00ACE9" d="M12.176 12.365V48.81h12.175l-.003-36.446h12.175V.215H0v12.148z" mask="url(#b)"/></g><path fill="#5BC5F2" d="M12.176 48.784h12.175v-24.3L12.176 12.338z"/><g transform="translate(0 -.025)"><mask id="d" fill="#fff"><use xlink:href="#c"/></mask><path fill="#0090D7" d="M0 .215v.006l24.348 24.285V12.364h12.174V.215z" mask="url(#d)"/></g></g></svg>